<mxfile host="app.diagrams.net" modified="2024-05-28T02:05:36.869Z" agent="Mozilla/5.0 (Windows NT 10.0; Win64; x64) AppleWebKit/537.36 (KHTML, like Gecko) Chrome/125.0.0.0 Safari/537.36" etag="xfa6RawMFzYILWynCDU0" version="24.4.4" type="device" pages="3">
  <diagram name="Page-1" id="4te1mmsv4zOZPAg38L9I">
    <mxGraphModel dx="4148" dy="2264" grid="0" gridSize="10" guides="1" tooltips="1" connect="1" arrows="1" fold="1" page="1" pageScale="1" pageWidth="1654" pageHeight="2336" math="0" shadow="0">
      <root>
        <mxCell id="0" />
        <mxCell id="1" parent="0" />
        <mxCell id="vHd0KxsH72mr9lN2sKgw-1" value="STATE_INIT" style="swimlane;fontSize=24;" vertex="1" parent="1">
          <mxGeometry x="271.5" y="181" width="439.25" height="350" as="geometry">
            <mxRectangle x="267" y="272" width="139" height="41" as="alternateBounds" />
          </mxGeometry>
        </mxCell>
        <mxCell id="vHd0KxsH72mr9lN2sKgw-42" value="&lt;ul&gt;&lt;li&gt;&lt;font style=&quot;font-size: 18px;&quot;&gt;Affichage d&#39;un message d&#39;attente de fix du gps&lt;/font&gt;&lt;/li&gt;&lt;li&gt;&lt;font style=&quot;font-size: 18px;&quot;&gt;Après fix du gps affichage des informations utiles:&lt;/font&gt;&lt;/li&gt;&lt;/ul&gt;&lt;span style=&quot;font-size: 18px; background-color: initial;&quot;&gt;&amp;nbsp; &amp;nbsp; &amp;nbsp; &amp;nbsp;-fleche indiquant le nord en haut à gauche&lt;/span&gt;&lt;br&gt;&lt;span style=&quot;font-size: 18px; background-color: initial;&quot;&gt;&amp;nbsp; &amp;nbsp; &amp;nbsp; &amp;nbsp;-latitude&lt;/span&gt;&lt;div&gt;&lt;span style=&quot;font-size: 18px; background-color: initial;&quot;&gt;&amp;nbsp; &amp;nbsp; &amp;nbsp; &amp;nbsp;-longitude&lt;/span&gt;&lt;/div&gt;&lt;div&gt;&lt;span style=&quot;font-size: 18px; background-color: initial;&quot;&gt;&amp;nbsp; &amp;nbsp; &amp;nbsp; &amp;nbsp;-ville la plus proche&amp;nbsp;&lt;/span&gt;&lt;/div&gt;" style="text;html=1;align=left;verticalAlign=middle;resizable=0;points=[];autosize=1;strokeColor=none;fillColor=none;" vertex="1" parent="vHd0KxsH72mr9lN2sKgw-1">
          <mxGeometry x="-14.75" y="51" width="454" height="166" as="geometry" />
        </mxCell>
        <mxCell id="vHd0KxsH72mr9lN2sKgw-2" value="STATE_NAVIG" style="swimlane;fontSize=24;" vertex="1" parent="1">
          <mxGeometry x="257" y="705" width="464.5" height="350" as="geometry" />
        </mxCell>
        <mxCell id="vHd0KxsH72mr9lN2sKgw-45" value="&lt;ul&gt;&lt;li&gt;&lt;span style=&quot;font-size: 18px;&quot;&gt;Si GPS fix alors affichage de la distance&amp;nbsp;&lt;/span&gt;&lt;/li&gt;&lt;/ul&gt;&lt;span style=&quot;font-size: 18px; background-color: initial;&quot;&gt;à la ville la plus proche rentrée en paramètre&lt;/span&gt;&lt;br&gt;&lt;ul&gt;&lt;li style=&quot;text-align: left;&quot;&gt;&lt;span style=&quot;font-size: 18px;&quot;&gt;&amp;nbsp;Affichage de la fleche directionnelle vers cette ville&amp;nbsp;&lt;/span&gt;&lt;/li&gt;&lt;li style=&quot;text-align: left;&quot;&gt;&lt;span style=&quot;font-size: 18px;&quot;&gt;Affichage de l&#39;altitude&lt;/span&gt;&lt;/li&gt;&lt;/ul&gt;" style="text;html=1;align=center;verticalAlign=middle;resizable=0;points=[];autosize=1;strokeColor=none;fillColor=none;" vertex="1" parent="vHd0KxsH72mr9lN2sKgw-2">
          <mxGeometry x="-4.5" y="45" width="469" height="146" as="geometry" />
        </mxCell>
        <mxCell id="vHd0KxsH72mr9lN2sKgw-4" value="STATE_BALISE" style="swimlane;fontSize=24;" vertex="1" parent="1">
          <mxGeometry x="233" y="1812" width="433" height="350" as="geometry" />
        </mxCell>
        <mxCell id="vHd0KxsH72mr9lN2sKgw-47" value="&lt;ul style=&quot;font-size: 14px;&quot;&gt;&lt;li&gt;&lt;font style=&quot;font-size: 14px;&quot;&gt;Etat spéciale, mise en veille du processeur&lt;/font&gt;&lt;/li&gt;&lt;li&gt;&lt;font style=&quot;font-size: 14px;&quot;&gt;Timer lowpower réveille le processeur, met à l&#39;état haut&amp;nbsp;&lt;/font&gt;&lt;/li&gt;&lt;li&gt;&lt;font style=&quot;font-size: 14px;&quot;&gt;la broche gpio dédiée à l&#39;alim du GPS&lt;/font&gt;&lt;/li&gt;&lt;li&gt;&lt;font style=&quot;font-size: 14px;&quot;&gt;Attend le fix du GPS&lt;/font&gt;&lt;/li&gt;&lt;li&gt;&lt;span style=&quot;&quot;&gt;Stocke la latitude, longitude dans un buffer en&amp;nbsp;&lt;/span&gt;&lt;/li&gt;&lt;/ul&gt;&lt;span style=&quot;background-color: initial; font-size: 14px;&quot;&gt;&amp;nbsp; &amp;nbsp; &amp;nbsp; &amp;nbsp; &amp;nbsp; &amp;nbsp;mémoire non remis à zéro au démarrage&lt;/span&gt;&lt;br&gt;&lt;div&gt;&lt;ul&gt;&lt;li&gt;&lt;span style=&quot;background-color: initial; font-size: 14px;&quot;&gt;Puis rendors tout le monde jusqu&#39;à la prochaine prise&lt;/span&gt;&lt;/li&gt;&lt;/ul&gt;&lt;span style=&quot;background-color: initial; font-size: 14px;&quot;&gt;&amp;nbsp; &amp;nbsp; &amp;nbsp; &amp;nbsp; &amp;nbsp; &amp;nbsp;de mesure&lt;/span&gt;&lt;br&gt;&lt;/div&gt;" style="text;html=1;align=left;verticalAlign=middle;resizable=0;points=[];autosize=1;strokeColor=none;fillColor=none;" vertex="1" parent="vHd0KxsH72mr9lN2sKgw-4">
          <mxGeometry x="10" y="37" width="403" height="198" as="geometry" />
        </mxCell>
        <mxCell id="vHd0KxsH72mr9lN2sKgw-6" style="edgeStyle=orthogonalEdgeStyle;rounded=0;orthogonalLoop=1;jettySize=auto;html=1;entryX=1.25;entryY=0.9;entryDx=0;entryDy=0;entryPerimeter=0;" edge="1" parent="1" source="vHd0KxsH72mr9lN2sKgw-5" target="vHd0KxsH72mr9lN2sKgw-5">
          <mxGeometry relative="1" as="geometry" />
        </mxCell>
        <mxCell id="vHd0KxsH72mr9lN2sKgw-7" value="STATE_SPEED" style="swimlane;fontSize=24;" vertex="1" parent="1">
          <mxGeometry x="247" y="1191" width="496.75" height="350" as="geometry" />
        </mxCell>
        <mxCell id="vHd0KxsH72mr9lN2sKgw-46" value="&lt;ul&gt;&lt;li&gt;&lt;font style=&quot;font-size: 18px;&quot;&gt;Si GPS fix alors affichage de la vitesse instantannée&lt;/font&gt;&lt;/li&gt;&lt;li&gt;&lt;font style=&quot;font-size: 18px;&quot;&gt;Affichage de la vitesse max depuis l&#39;arrivée dans cet état.&amp;nbsp;&lt;/font&gt;&lt;/li&gt;&lt;/ul&gt;" style="text;html=1;align=left;verticalAlign=middle;resizable=0;points=[];autosize=1;strokeColor=none;fillColor=none;" vertex="1" parent="vHd0KxsH72mr9lN2sKgw-7">
          <mxGeometry x="-23.25" y="87" width="520" height="79" as="geometry" />
        </mxCell>
        <mxCell id="vHd0KxsH72mr9lN2sKgw-8" value="&lt;b&gt;&lt;font style=&quot;font-size: 20px;&quot;&gt;BOUTON_A&lt;/font&gt;&lt;/b&gt;" style="shape=ext;double=1;rounded=1;whiteSpace=wrap;html=1;" vertex="1" parent="1">
          <mxGeometry x="406" y="570" width="124" height="62" as="geometry" />
        </mxCell>
        <mxCell id="vHd0KxsH72mr9lN2sKgw-9" value="&lt;b&gt;&lt;font style=&quot;font-size: 20px;&quot;&gt;BOUTON_A&lt;/font&gt;&lt;/b&gt;" style="shape=ext;double=1;rounded=1;whiteSpace=wrap;html=1;" vertex="1" parent="1">
          <mxGeometry x="406" y="1087" width="124" height="62" as="geometry" />
        </mxCell>
        <mxCell id="vHd0KxsH72mr9lN2sKgw-10" value="&lt;b&gt;&lt;font style=&quot;font-size: 20px;&quot;&gt;BOUTON_A&lt;/font&gt;&lt;/b&gt;" style="shape=ext;double=1;rounded=1;whiteSpace=wrap;html=1;" vertex="1" parent="1">
          <mxGeometry x="406" y="1577" width="124" height="62" as="geometry" />
        </mxCell>
        <mxCell id="vHd0KxsH72mr9lN2sKgw-11" value="&lt;b&gt;&lt;font style=&quot;font-size: 20px;&quot;&gt;BOUTON_B&lt;/font&gt;&lt;/b&gt;" style="shape=ext;double=1;rounded=1;whiteSpace=wrap;html=1;" vertex="1" parent="1">
          <mxGeometry x="344" y="1677" width="124" height="62" as="geometry" />
        </mxCell>
        <mxCell id="vHd0KxsH72mr9lN2sKgw-13" value="" style="endArrow=classic;html=1;rounded=0;exitX=0.5;exitY=1;exitDx=0;exitDy=0;strokeWidth=5;" edge="1" parent="1" source="vHd0KxsH72mr9lN2sKgw-2" target="vHd0KxsH72mr9lN2sKgw-9">
          <mxGeometry width="50" height="50" relative="1" as="geometry">
            <mxPoint x="491" y="1072" as="sourcePoint" />
            <mxPoint x="541" y="1022" as="targetPoint" />
          </mxGeometry>
        </mxCell>
        <mxCell id="vHd0KxsH72mr9lN2sKgw-14" value="" style="edgeStyle=segmentEdgeStyle;endArrow=classic;html=1;curved=0;rounded=0;endSize=8;startSize=8;strokeWidth=5;exitX=0;exitY=0.5;exitDx=0;exitDy=0;entryX=0.25;entryY=0;entryDx=0;entryDy=0;" edge="1" parent="1" source="vHd0KxsH72mr9lN2sKgw-9" target="vHd0KxsH72mr9lN2sKgw-7">
          <mxGeometry width="50" height="50" relative="1" as="geometry">
            <mxPoint x="491" y="1172" as="sourcePoint" />
            <mxPoint x="541" y="1122" as="targetPoint" />
          </mxGeometry>
        </mxCell>
        <mxCell id="vHd0KxsH72mr9lN2sKgw-15" value="" style="edgeStyle=segmentEdgeStyle;endArrow=classic;html=1;curved=0;rounded=0;endSize=8;startSize=8;strokeWidth=5;exitX=0;exitY=0.5;exitDx=0;exitDy=0;entryX=0.25;entryY=0;entryDx=0;entryDy=0;" edge="1" parent="1" source="vHd0KxsH72mr9lN2sKgw-10" target="vHd0KxsH72mr9lN2sKgw-11">
          <mxGeometry width="50" height="50" relative="1" as="geometry">
            <mxPoint x="371" y="1582" as="sourcePoint" />
            <mxPoint x="335" y="1655" as="targetPoint" />
          </mxGeometry>
        </mxCell>
        <mxCell id="vHd0KxsH72mr9lN2sKgw-16" value="" style="edgeStyle=segmentEdgeStyle;endArrow=classic;html=1;curved=0;rounded=0;endSize=8;startSize=8;strokeWidth=5;exitX=0;exitY=0.5;exitDx=0;exitDy=0;entryX=0.25;entryY=0;entryDx=0;entryDy=0;" edge="1" parent="1" source="vHd0KxsH72mr9lN2sKgw-8" target="vHd0KxsH72mr9lN2sKgw-2">
          <mxGeometry width="50" height="50" relative="1" as="geometry">
            <mxPoint x="391" y="601" as="sourcePoint" />
            <mxPoint x="360" y="670" as="targetPoint" />
          </mxGeometry>
        </mxCell>
        <mxCell id="vHd0KxsH72mr9lN2sKgw-17" value="" style="endArrow=classic;html=1;rounded=0;strokeWidth=5;entryX=0.5;entryY=0;entryDx=0;entryDy=0;" edge="1" parent="1" target="vHd0KxsH72mr9lN2sKgw-50">
          <mxGeometry width="50" height="50" relative="1" as="geometry">
            <mxPoint x="467" y="28" as="sourcePoint" />
            <mxPoint x="467" y="56" as="targetPoint" />
          </mxGeometry>
        </mxCell>
        <mxCell id="vHd0KxsH72mr9lN2sKgw-18" value="" style="endArrow=classic;html=1;rounded=0;strokeWidth=5;exitX=0.5;exitY=1;exitDx=0;exitDy=0;entryX=0.5;entryY=0;entryDx=0;entryDy=0;" edge="1" parent="1" source="vHd0KxsH72mr9lN2sKgw-1" target="vHd0KxsH72mr9lN2sKgw-8">
          <mxGeometry width="50" height="50" relative="1" as="geometry">
            <mxPoint x="478" y="98" as="sourcePoint" />
            <mxPoint x="478" y="191" as="targetPoint" />
            <Array as="points" />
          </mxGeometry>
        </mxCell>
        <mxCell id="vHd0KxsH72mr9lN2sKgw-19" value="" style="endArrow=classic;html=1;rounded=0;exitX=0.5;exitY=1;exitDx=0;exitDy=0;strokeWidth=5;entryX=0.5;entryY=0;entryDx=0;entryDy=0;" edge="1" parent="1" source="vHd0KxsH72mr9lN2sKgw-7" target="vHd0KxsH72mr9lN2sKgw-10">
          <mxGeometry width="50" height="50" relative="1" as="geometry">
            <mxPoint x="437" y="1545" as="sourcePoint" />
            <mxPoint x="437" y="1577" as="targetPoint" />
            <Array as="points" />
          </mxGeometry>
        </mxCell>
        <mxCell id="vHd0KxsH72mr9lN2sKgw-20" value="1" style="text;strokeColor=none;fillColor=none;html=1;fontSize=24;fontStyle=1;verticalAlign=middle;align=center;" vertex="1" parent="1">
          <mxGeometry x="376" y="1080" width="28" height="38" as="geometry" />
        </mxCell>
        <mxCell id="vHd0KxsH72mr9lN2sKgw-21" value="1" style="text;strokeColor=none;fillColor=none;html=1;fontSize=24;fontStyle=1;verticalAlign=middle;align=center;" vertex="1" parent="1">
          <mxGeometry x="376" y="556" width="28" height="38" as="geometry" />
        </mxCell>
        <mxCell id="vHd0KxsH72mr9lN2sKgw-22" value="1" style="text;strokeColor=none;fillColor=none;html=1;fontSize=24;fontStyle=1;verticalAlign=middle;align=center;" vertex="1" parent="1">
          <mxGeometry x="374" y="1564" width="28" height="38" as="geometry" />
        </mxCell>
        <mxCell id="vHd0KxsH72mr9lN2sKgw-23" value="1" style="text;strokeColor=none;fillColor=none;html=1;fontSize=24;fontStyle=1;verticalAlign=middle;align=center;" vertex="1" parent="1">
          <mxGeometry x="478" y="1664" width="28" height="38" as="geometry" />
        </mxCell>
        <mxCell id="vHd0KxsH72mr9lN2sKgw-24" value="0" style="text;strokeColor=none;fillColor=none;html=1;fontSize=24;fontStyle=1;verticalAlign=middle;align=center;" vertex="1" parent="1">
          <mxGeometry x="532" y="1082" width="44" height="40" as="geometry" />
        </mxCell>
        <mxCell id="vHd0KxsH72mr9lN2sKgw-25" value="0" style="text;strokeColor=none;fillColor=none;html=1;fontSize=24;fontStyle=1;verticalAlign=middle;align=center;" vertex="1" parent="1">
          <mxGeometry x="532" y="556" width="44" height="40" as="geometry" />
        </mxCell>
        <mxCell id="vHd0KxsH72mr9lN2sKgw-26" value="0" style="text;strokeColor=none;fillColor=none;html=1;fontSize=24;fontStyle=1;verticalAlign=middle;align=center;" vertex="1" parent="1">
          <mxGeometry x="532" y="1562" width="44" height="40" as="geometry" />
        </mxCell>
        <mxCell id="vHd0KxsH72mr9lN2sKgw-27" value="0" style="text;strokeColor=none;fillColor=none;html=1;fontSize=24;fontStyle=1;verticalAlign=middle;align=center;" vertex="1" parent="1">
          <mxGeometry x="298" y="1662" width="44" height="40" as="geometry" />
        </mxCell>
        <mxCell id="vHd0KxsH72mr9lN2sKgw-28" value="" style="edgeStyle=elbowEdgeStyle;elbow=horizontal;endArrow=classic;html=1;curved=0;rounded=0;endSize=8;startSize=8;exitX=0;exitY=0.5;exitDx=0;exitDy=0;entryX=0.9;entryY=0.9;entryDx=0;entryDy=0;entryPerimeter=0;strokeWidth=5;" edge="1" parent="1">
          <mxGeometry width="50" height="50" relative="1" as="geometry">
            <mxPoint x="343.9999999999998" y="1648.9999999999995" as="sourcePoint" />
            <mxPoint x="468" y="29" as="targetPoint" />
            <Array as="points">
              <mxPoint x="144" y="849" />
            </Array>
          </mxGeometry>
        </mxCell>
        <mxCell id="vHd0KxsH72mr9lN2sKgw-29" value="" style="edgeStyle=segmentEdgeStyle;endArrow=classic;html=1;curved=0;rounded=0;endSize=8;startSize=8;strokeWidth=5;exitX=1;exitY=0.5;exitDx=0;exitDy=0;entryX=0.75;entryY=0;entryDx=0;entryDy=0;" edge="1" parent="1" source="vHd0KxsH72mr9lN2sKgw-11" target="vHd0KxsH72mr9lN2sKgw-4">
          <mxGeometry width="50" height="50" relative="1" as="geometry">
            <mxPoint x="566" y="1700" as="sourcePoint" />
            <mxPoint x="530" y="1773" as="targetPoint" />
          </mxGeometry>
        </mxCell>
        <mxCell id="vHd0KxsH72mr9lN2sKgw-30" value="&lt;b&gt;&lt;font style=&quot;font-size: 20px;&quot;&gt;BOUTON_B&lt;/font&gt;&lt;/b&gt;" style="shape=ext;double=1;rounded=1;whiteSpace=wrap;html=1;" vertex="1" parent="1">
          <mxGeometry x="728" y="2005" width="124" height="62" as="geometry" />
        </mxCell>
        <mxCell id="vHd0KxsH72mr9lN2sKgw-31" value="&lt;b&gt;&lt;font style=&quot;font-size: 20px;&quot;&gt;BOUTON_A&lt;/font&gt;&lt;/b&gt;" style="shape=ext;double=1;rounded=1;whiteSpace=wrap;html=1;" vertex="1" parent="1">
          <mxGeometry x="809" y="2136" width="124" height="62" as="geometry" />
        </mxCell>
        <mxCell id="vHd0KxsH72mr9lN2sKgw-32" value="" style="edgeStyle=elbowEdgeStyle;elbow=horizontal;endArrow=classic;html=1;curved=0;rounded=0;endSize=8;startSize=8;strokeWidth=5;exitDx=0;exitDy=0;entryX=0.82;entryY=0.915;entryDx=0;entryDy=0;entryPerimeter=0;" edge="1" parent="1" source="vHd0KxsH72mr9lN2sKgw-5">
          <mxGeometry width="50" height="50" relative="1" as="geometry">
            <mxPoint x="530" y="542" as="sourcePoint" />
            <mxPoint x="468" y="29" as="targetPoint" />
            <Array as="points" />
          </mxGeometry>
        </mxCell>
        <mxCell id="vHd0KxsH72mr9lN2sKgw-33" value="" style="edgeStyle=elbowEdgeStyle;elbow=horizontal;endArrow=classic;html=1;curved=0;rounded=0;endSize=8;startSize=8;strokeWidth=5;exitX=1;exitY=0.5;exitDx=0;exitDy=0;" edge="1" parent="1" source="vHd0KxsH72mr9lN2sKgw-9">
          <mxGeometry width="50" height="50" relative="1" as="geometry">
            <mxPoint x="755" y="998" as="sourcePoint" />
            <mxPoint x="371" y="655" as="targetPoint" />
            <Array as="points">
              <mxPoint x="804" y="888" />
            </Array>
          </mxGeometry>
        </mxCell>
        <mxCell id="vHd0KxsH72mr9lN2sKgw-34" value="" style="edgeStyle=elbowEdgeStyle;elbow=horizontal;endArrow=classic;html=1;curved=0;rounded=0;endSize=8;startSize=8;strokeWidth=5;exitX=1;exitY=0.5;exitDx=0;exitDy=0;" edge="1" parent="1" source="vHd0KxsH72mr9lN2sKgw-10">
          <mxGeometry width="50" height="50" relative="1" as="geometry">
            <mxPoint x="744" y="1550" as="sourcePoint" />
            <mxPoint x="371" y="1156" as="targetPoint" />
            <Array as="points">
              <mxPoint x="805" y="1380" />
            </Array>
          </mxGeometry>
        </mxCell>
        <mxCell id="vHd0KxsH72mr9lN2sKgw-35" value="" style="edgeStyle=segmentEdgeStyle;endArrow=classic;html=1;curved=0;rounded=0;endSize=8;startSize=8;strokeWidth=5;exitX=1;exitY=0.25;exitDx=0;exitDy=0;entryX=0.5;entryY=0;entryDx=0;entryDy=0;" edge="1" parent="1" source="vHd0KxsH72mr9lN2sKgw-4" target="vHd0KxsH72mr9lN2sKgw-30">
          <mxGeometry width="50" height="50" relative="1" as="geometry">
            <mxPoint x="691" y="1901" as="sourcePoint" />
            <mxPoint x="789" y="2005" as="targetPoint" />
          </mxGeometry>
        </mxCell>
        <mxCell id="vHd0KxsH72mr9lN2sKgw-36" value="" style="edgeStyle=segmentEdgeStyle;endArrow=classic;html=1;curved=0;rounded=0;endSize=8;startSize=8;strokeWidth=5;exitX=1;exitY=0.5;exitDx=0;exitDy=0;entryX=0.75;entryY=0;entryDx=0;entryDy=0;" edge="1" parent="1" source="vHd0KxsH72mr9lN2sKgw-30" target="vHd0KxsH72mr9lN2sKgw-31">
          <mxGeometry width="50" height="50" relative="1" as="geometry">
            <mxPoint x="835" y="1900" as="sourcePoint" />
            <mxPoint x="960" y="2005" as="targetPoint" />
          </mxGeometry>
        </mxCell>
        <mxCell id="vHd0KxsH72mr9lN2sKgw-38" value="" style="edgeStyle=elbowEdgeStyle;elbow=horizontal;endArrow=classic;html=1;curved=0;rounded=0;endSize=8;startSize=8;strokeWidth=5;exitX=0;exitY=0.5;exitDx=0;exitDy=0;" edge="1" parent="1" source="vHd0KxsH72mr9lN2sKgw-30">
          <mxGeometry width="50" height="50" relative="1" as="geometry">
            <mxPoint x="871" y="1959" as="sourcePoint" />
            <mxPoint x="665" y="2157" as="targetPoint" />
            <Array as="points">
              <mxPoint x="701" y="1807" />
            </Array>
          </mxGeometry>
        </mxCell>
        <mxCell id="vHd0KxsH72mr9lN2sKgw-40" value="" style="edgeStyle=segmentEdgeStyle;endArrow=classic;html=1;curved=0;rounded=0;endSize=8;startSize=8;strokeWidth=5;exitX=0;exitY=0.75;exitDx=0;exitDy=0;" edge="1" parent="1" source="vHd0KxsH72mr9lN2sKgw-31">
          <mxGeometry width="50" height="50" relative="1" as="geometry">
            <mxPoint x="554" y="2206" as="sourcePoint" />
            <mxPoint x="144" y="1709" as="targetPoint" />
          </mxGeometry>
        </mxCell>
        <mxCell id="vHd0KxsH72mr9lN2sKgw-41" value="" style="edgeStyle=elbowEdgeStyle;elbow=horizontal;endArrow=classic;html=1;curved=0;rounded=0;endSize=8;startSize=8;strokeWidth=5;exitX=1;exitY=0.5;exitDx=0;exitDy=0;" edge="1" parent="1" source="vHd0KxsH72mr9lN2sKgw-31">
          <mxGeometry width="50" height="50" relative="1" as="geometry">
            <mxPoint x="1042" y="1968" as="sourcePoint" />
            <mxPoint x="566" y="1768" as="targetPoint" />
            <Array as="points">
              <mxPoint x="960" y="1984" />
            </Array>
          </mxGeometry>
        </mxCell>
        <mxCell id="vHd0KxsH72mr9lN2sKgw-48" value="STATE_USB" style="swimlane;fontSize=24;" vertex="1" parent="1">
          <mxGeometry x="1080" y="144" width="480.25" height="350" as="geometry">
            <mxRectangle x="267" y="272" width="139" height="41" as="alternateBounds" />
          </mxGeometry>
        </mxCell>
        <mxCell id="vHd0KxsH72mr9lN2sKgw-49" value="&lt;ul&gt;&lt;li&gt;&lt;font style=&quot;font-size: 18px;&quot;&gt;Affichage d&#39;un message de transfert usb&lt;/font&gt;&lt;/li&gt;&lt;li&gt;&lt;span style=&quot;background-color: initial; font-size: 18px;&quot;&gt;Attend un message de début de transfert&lt;/span&gt;&lt;/li&gt;&lt;li&gt;&lt;span style=&quot;background-color: initial; font-size: 18px;&quot;&gt;Copie toute les donnée depuis le buffer non reset vers&amp;nbsp;&lt;/span&gt;&lt;/li&gt;&lt;/ul&gt;&lt;span style=&quot;background-color: initial;&quot;&gt;&amp;nbsp; &amp;nbsp; &amp;nbsp; &amp;nbsp; &amp;nbsp; &amp;nbsp; &amp;nbsp;&lt;font style=&quot;font-size: 18px;&quot;&gt;un script python sur l&#39;ordinateur&lt;/font&gt;&lt;/span&gt;" style="text;html=1;align=left;verticalAlign=middle;resizable=0;points=[];autosize=1;strokeColor=none;fillColor=none;" vertex="1" parent="vHd0KxsH72mr9lN2sKgw-48">
          <mxGeometry x="-14.75" y="73" width="495" height="122" as="geometry" />
        </mxCell>
        <mxCell id="vHd0KxsH72mr9lN2sKgw-50" value="&lt;b&gt;&lt;font style=&quot;font-size: 20px;&quot;&gt;USB&lt;/font&gt;&lt;/b&gt;" style="shape=ext;double=1;rounded=1;whiteSpace=wrap;html=1;" vertex="1" parent="1">
          <mxGeometry x="404" y="57" width="124" height="62" as="geometry" />
        </mxCell>
        <mxCell id="vHd0KxsH72mr9lN2sKgw-51" value="" style="edgeStyle=elbowEdgeStyle;elbow=horizontal;endArrow=classic;html=1;curved=0;rounded=0;endSize=8;startSize=8;strokeWidth=5;exitX=0;exitY=1;exitDx=0;exitDy=0;entryDx=0;entryDy=0;entryPerimeter=0;" edge="1" parent="1" source="vHd0KxsH72mr9lN2sKgw-25" target="vHd0KxsH72mr9lN2sKgw-5">
          <mxGeometry width="50" height="50" relative="1" as="geometry">
            <mxPoint x="532" y="596" as="sourcePoint" />
            <mxPoint x="468" y="29" as="targetPoint" />
            <Array as="points">
              <mxPoint x="803" y="411" />
            </Array>
          </mxGeometry>
        </mxCell>
        <mxCell id="vHd0KxsH72mr9lN2sKgw-5" value="" style="shape=waypoint;sketch=0;fillStyle=solid;size=6;pointerEvents=1;points=[];fillColor=none;resizable=0;rotatable=0;perimeter=centerPerimeter;snapToPoint=1;" vertex="1" parent="1">
          <mxGeometry x="456" y="19" width="20" height="20" as="geometry" />
        </mxCell>
        <mxCell id="vHd0KxsH72mr9lN2sKgw-53" value="1" style="text;strokeColor=none;fillColor=none;html=1;fontSize=24;fontStyle=1;verticalAlign=middle;align=center;" vertex="1" parent="1">
          <mxGeometry x="528" y="32" width="28" height="38" as="geometry" />
        </mxCell>
        <mxCell id="vHd0KxsH72mr9lN2sKgw-54" value="0" style="text;strokeColor=none;fillColor=none;html=1;fontSize=24;fontStyle=1;verticalAlign=middle;align=center;" vertex="1" parent="1">
          <mxGeometry x="362" y="30" width="44" height="40" as="geometry" />
        </mxCell>
        <mxCell id="vHd0KxsH72mr9lN2sKgw-55" value="" style="edgeStyle=segmentEdgeStyle;endArrow=classic;html=1;curved=0;rounded=0;endSize=8;startSize=8;exitX=0;exitY=0.5;exitDx=0;exitDy=0;entryX=0.25;entryY=0;entryDx=0;entryDy=0;strokeWidth=5;" edge="1" parent="1" source="vHd0KxsH72mr9lN2sKgw-50" target="vHd0KxsH72mr9lN2sKgw-1">
          <mxGeometry width="50" height="50" relative="1" as="geometry">
            <mxPoint x="552" y="174" as="sourcePoint" />
            <mxPoint x="602" y="124" as="targetPoint" />
          </mxGeometry>
        </mxCell>
        <mxCell id="vHd0KxsH72mr9lN2sKgw-57" value="" style="curved=1;endArrow=classic;html=1;rounded=0;strokeWidth=5;entryX=0.5;entryY=0;entryDx=0;entryDy=0;exitX=1.006;exitY=0.606;exitDx=0;exitDy=0;exitPerimeter=0;" edge="1" parent="1" source="vHd0KxsH72mr9lN2sKgw-50" target="vHd0KxsH72mr9lN2sKgw-48">
          <mxGeometry width="50" height="50" relative="1" as="geometry">
            <mxPoint x="625" y="94" as="sourcePoint" />
            <mxPoint x="1197" y="94" as="targetPoint" />
            <Array as="points">
              <mxPoint x="703" y="95" />
              <mxPoint x="753" y="95" />
              <mxPoint x="777" y="95" />
              <mxPoint x="793" y="95" />
              <mxPoint x="795" y="95" />
              <mxPoint x="793" y="80" />
              <mxPoint x="814" y="82" />
              <mxPoint x="812" y="94" />
              <mxPoint x="822" y="97" />
              <mxPoint x="1131" y="99" />
              <mxPoint x="1240" y="98" />
              <mxPoint x="1303" y="99" />
              <mxPoint x="1311" y="99" />
              <mxPoint x="1318" y="98" />
              <mxPoint x="1320" y="101" />
              <mxPoint x="1319" y="115" />
            </Array>
          </mxGeometry>
        </mxCell>
      </root>
    </mxGraphModel>
  </diagram>
  <diagram id="7MG9rN5hEEA3zfBkePuR" name="Page-2" />
  <diagram id="2AJtV1GmLy-Ozx1gZU7B" name="Page-3">
    <mxGraphModel dx="1430" dy="781" grid="0" gridSize="10" guides="1" tooltips="1" connect="1" arrows="1" fold="1" page="1" pageScale="1" pageWidth="1654" pageHeight="2336" math="0" shadow="0">
      <root>
        <mxCell id="0" />
        <mxCell id="1" parent="0" />
        <mxCell id="mWsBHAnHRhZ5X0qZi9KK-2" value="Ringbuffer" style="rounded=0;whiteSpace=wrap;html=1;" vertex="1" parent="1">
          <mxGeometry x="235" y="169" width="120" height="60" as="geometry" />
        </mxCell>
        <mxCell id="mWsBHAnHRhZ5X0qZi9KK-3" value="Buffer[512]" style="rounded=0;whiteSpace=wrap;html=1;" vertex="1" parent="1">
          <mxGeometry x="235" y="283" width="120" height="60" as="geometry" />
        </mxCell>
        <mxCell id="mWsBHAnHRhZ5X0qZi9KK-4" value="Recherche des bonnes trames(strcmp,memcpy)" style="rounded=0;whiteSpace=wrap;html=1;" vertex="1" parent="1">
          <mxGeometry x="230" y="397" width="130" height="60" as="geometry" />
        </mxCell>
        <mxCell id="mWsBHAnHRhZ5X0qZi9KK-5" value="" style="shape=flexArrow;endArrow=classic;html=1;rounded=0;entryX=0.5;entryY=0;entryDx=0;entryDy=0;" edge="1" parent="1" target="mWsBHAnHRhZ5X0qZi9KK-2">
          <mxGeometry width="50" height="50" relative="1" as="geometry">
            <mxPoint x="296" y="126" as="sourcePoint" />
            <mxPoint x="444" y="162" as="targetPoint" />
          </mxGeometry>
        </mxCell>
        <mxCell id="mWsBHAnHRhZ5X0qZi9KK-6" value="UART RX(trame NMEA)" style="edgeLabel;html=1;align=center;verticalAlign=middle;resizable=0;points=[];" vertex="1" connectable="0" parent="mWsBHAnHRhZ5X0qZi9KK-5">
          <mxGeometry x="-0.4436" y="2" relative="1" as="geometry">
            <mxPoint as="offset" />
          </mxGeometry>
        </mxCell>
        <mxCell id="mWsBHAnHRhZ5X0qZi9KK-7" value="BuffRmc[100]" style="rounded=0;whiteSpace=wrap;html=1;" vertex="1" parent="1">
          <mxGeometry x="118" y="484" width="117" height="60" as="geometry" />
        </mxCell>
        <mxCell id="mWsBHAnHRhZ5X0qZi9KK-8" value="BuffGga[100]" style="rounded=0;whiteSpace=wrap;html=1;" vertex="1" parent="1">
          <mxGeometry x="355" y="484" width="130" height="60" as="geometry" />
        </mxCell>
        <mxCell id="mWsBHAnHRhZ5X0qZi9KK-9" value="decode rmc" style="rounded=0;whiteSpace=wrap;html=1;" vertex="1" parent="1">
          <mxGeometry x="118" y="591" width="117" height="60" as="geometry" />
        </mxCell>
        <mxCell id="mWsBHAnHRhZ5X0qZi9KK-10" value="decode gga" style="rounded=0;whiteSpace=wrap;html=1;" vertex="1" parent="1">
          <mxGeometry x="356" y="591" width="129" height="60" as="geometry" />
        </mxCell>
        <mxCell id="mWsBHAnHRhZ5X0qZi9KK-11" value="Qmc_Read" style="rounded=0;whiteSpace=wrap;html=1;" vertex="1" parent="1">
          <mxGeometry x="805" y="165" width="120" height="60" as="geometry" />
        </mxCell>
        <mxCell id="mWsBHAnHRhZ5X0qZi9KK-12" value="" style="rounded=0;whiteSpace=wrap;html=1;" vertex="1" parent="1">
          <mxGeometry x="714.13" y="270" width="301.75" height="221" as="geometry" />
        </mxCell>
        <mxCell id="mWsBHAnHRhZ5X0qZi9KK-14" value="" style="shape=flexArrow;endArrow=classic;html=1;rounded=0;entryX=0.5;entryY=0;entryDx=0;entryDy=0;exitX=0.5;exitY=1;exitDx=0;exitDy=0;" edge="1" parent="1" target="mWsBHAnHRhZ5X0qZi9KK-11" source="mWsBHAnHRhZ5X0qZi9KK-21">
          <mxGeometry width="50" height="50" relative="1" as="geometry">
            <mxPoint x="868" y="133" as="sourcePoint" />
            <mxPoint x="1016" y="169" as="targetPoint" />
          </mxGeometry>
        </mxCell>
        <mxCell id="mWsBHAnHRhZ5X0qZi9KK-15" value="I2C1" style="edgeLabel;html=1;align=center;verticalAlign=middle;resizable=0;points=[];" vertex="1" connectable="0" parent="mWsBHAnHRhZ5X0qZi9KK-14">
          <mxGeometry x="-0.4436" y="2" relative="1" as="geometry">
            <mxPoint as="offset" />
          </mxGeometry>
        </mxCell>
        <mxCell id="mWsBHAnHRhZ5X0qZi9KK-20" value="GPS" style="rounded=0;whiteSpace=wrap;html=1;" vertex="1" parent="1">
          <mxGeometry x="235" y="58" width="120" height="60" as="geometry" />
        </mxCell>
        <mxCell id="mWsBHAnHRhZ5X0qZi9KK-21" value="Compas(QMC4883)" style="rounded=0;whiteSpace=wrap;html=1;" vertex="1" parent="1">
          <mxGeometry x="805" y="60" width="120" height="60" as="geometry" />
        </mxCell>
        <mxCell id="mWsBHAnHRhZ5X0qZi9KK-22" value="Qmc_Init" style="rounded=0;whiteSpace=wrap;html=1;" vertex="1" parent="1">
          <mxGeometry x="630" y="60" width="120" height="60" as="geometry" />
        </mxCell>
        <mxCell id="mWsBHAnHRhZ5X0qZi9KK-23" value="" style="shape=flexArrow;endArrow=classic;html=1;rounded=0;entryX=0;entryY=0.5;entryDx=0;entryDy=0;exitX=1;exitY=0.5;exitDx=0;exitDy=0;" edge="1" parent="1" source="mWsBHAnHRhZ5X0qZi9KK-22" target="mWsBHAnHRhZ5X0qZi9KK-21">
          <mxGeometry width="50" height="50" relative="1" as="geometry">
            <mxPoint x="783" y="76" as="sourcePoint" />
            <mxPoint x="782" y="118" as="targetPoint" />
          </mxGeometry>
        </mxCell>
        <mxCell id="mWsBHAnHRhZ5X0qZi9KK-24" value="I2C1" style="edgeLabel;html=1;align=center;verticalAlign=middle;resizable=0;points=[];" vertex="1" connectable="0" parent="mWsBHAnHRhZ5X0qZi9KK-23">
          <mxGeometry x="-0.4436" y="2" relative="1" as="geometry">
            <mxPoint as="offset" />
          </mxGeometry>
        </mxCell>
        <mxCell id="mWsBHAnHRhZ5X0qZi9KK-26" value="" style="rounded=0;whiteSpace=wrap;html=1;" vertex="1" parent="1">
          <mxGeometry x="156" y="697" width="297" height="208" as="geometry" />
        </mxCell>
        <mxCell id="mWsBHAnHRhZ5X0qZi9KK-27" value="" style="endArrow=classic;html=1;rounded=0;exitX=0.5;exitY=1;exitDx=0;exitDy=0;entryX=0.5;entryY=0;entryDx=0;entryDy=0;strokeWidth=4;" edge="1" parent="1" source="mWsBHAnHRhZ5X0qZi9KK-3" target="mWsBHAnHRhZ5X0qZi9KK-4">
          <mxGeometry width="50" height="50" relative="1" as="geometry">
            <mxPoint x="110" y="466" as="sourcePoint" />
            <mxPoint x="160" y="416" as="targetPoint" />
          </mxGeometry>
        </mxCell>
        <mxCell id="mWsBHAnHRhZ5X0qZi9KK-28" value="" style="endArrow=classic;html=1;rounded=0;exitX=0.5;exitY=1;exitDx=0;exitDy=0;entryX=0.5;entryY=0;entryDx=0;entryDy=0;strokeWidth=4;" edge="1" parent="1">
          <mxGeometry width="50" height="50" relative="1" as="geometry">
            <mxPoint x="294.58" y="229" as="sourcePoint" />
            <mxPoint x="294.58" y="283" as="targetPoint" />
          </mxGeometry>
        </mxCell>
        <mxCell id="mWsBHAnHRhZ5X0qZi9KK-29" value="" style="endArrow=classic;html=1;rounded=0;entryX=0.5;entryY=0;entryDx=0;entryDy=0;strokeWidth=4;exitX=0.5;exitY=1;exitDx=0;exitDy=0;" edge="1" parent="1" source="mWsBHAnHRhZ5X0qZi9KK-11" target="mWsBHAnHRhZ5X0qZi9KK-12">
          <mxGeometry width="50" height="50" relative="1" as="geometry">
            <mxPoint x="856" y="232" as="sourcePoint" />
            <mxPoint x="433" y="417" as="targetPoint" />
            <Array as="points" />
          </mxGeometry>
        </mxCell>
        <mxCell id="mWsBHAnHRhZ5X0qZi9KK-30" value="" style="endArrow=classic;html=1;rounded=0;exitX=0.51;exitY=0.967;exitDx=0;exitDy=0;entryX=0.5;entryY=0;entryDx=0;entryDy=0;strokeWidth=4;exitPerimeter=0;" edge="1" parent="1" source="mWsBHAnHRhZ5X0qZi9KK-8" target="mWsBHAnHRhZ5X0qZi9KK-10">
          <mxGeometry width="50" height="50" relative="1" as="geometry">
            <mxPoint x="423" y="548" as="sourcePoint" />
            <mxPoint x="423" y="602" as="targetPoint" />
          </mxGeometry>
        </mxCell>
        <mxCell id="mWsBHAnHRhZ5X0qZi9KK-31" value="" style="endArrow=classic;html=1;rounded=0;exitX=0.5;exitY=1;exitDx=0;exitDy=0;entryX=0.5;entryY=0;entryDx=0;entryDy=0;strokeWidth=4;" edge="1" parent="1" source="mWsBHAnHRhZ5X0qZi9KK-7" target="mWsBHAnHRhZ5X0qZi9KK-9">
          <mxGeometry width="50" height="50" relative="1" as="geometry">
            <mxPoint x="196" y="546" as="sourcePoint" />
            <mxPoint x="195" y="595" as="targetPoint" />
          </mxGeometry>
        </mxCell>
        <mxCell id="mWsBHAnHRhZ5X0qZi9KK-32" value="" style="endArrow=classic;html=1;rounded=0;exitX=0.5;exitY=1;exitDx=0;exitDy=0;entryX=0.5;entryY=0;entryDx=0;entryDy=0;strokeWidth=4;" edge="1" parent="1" source="mWsBHAnHRhZ5X0qZi9KK-9" target="mWsBHAnHRhZ5X0qZi9KK-26">
          <mxGeometry width="50" height="50" relative="1" as="geometry">
            <mxPoint x="214" y="651" as="sourcePoint" />
            <mxPoint x="214" y="698" as="targetPoint" />
            <Array as="points" />
          </mxGeometry>
        </mxCell>
        <mxCell id="mWsBHAnHRhZ5X0qZi9KK-33" value="" style="endArrow=classic;html=1;rounded=0;exitX=0.5;exitY=1;exitDx=0;exitDy=0;entryX=0.5;entryY=0;entryDx=0;entryDy=0;strokeWidth=4;" edge="1" parent="1" source="mWsBHAnHRhZ5X0qZi9KK-10" target="mWsBHAnHRhZ5X0qZi9KK-26">
          <mxGeometry width="50" height="50" relative="1" as="geometry">
            <mxPoint x="187" y="661" as="sourcePoint" />
            <mxPoint x="315" y="707" as="targetPoint" />
            <Array as="points" />
          </mxGeometry>
        </mxCell>
        <mxCell id="mWsBHAnHRhZ5X0qZi9KK-34" value="" style="edgeStyle=segmentEdgeStyle;endArrow=classic;html=1;curved=0;rounded=0;endSize=8;startSize=8;strokeWidth=4;exitX=1;exitY=0.5;exitDx=0;exitDy=0;entryX=0.5;entryY=0;entryDx=0;entryDy=0;" edge="1" parent="1" source="mWsBHAnHRhZ5X0qZi9KK-4" target="mWsBHAnHRhZ5X0qZi9KK-8">
          <mxGeometry width="50" height="50" relative="1" as="geometry">
            <mxPoint x="524" y="411" as="sourcePoint" />
            <mxPoint x="574" y="361" as="targetPoint" />
          </mxGeometry>
        </mxCell>
        <mxCell id="mWsBHAnHRhZ5X0qZi9KK-35" value="" style="edgeStyle=segmentEdgeStyle;endArrow=classic;html=1;curved=0;rounded=0;endSize=8;startSize=8;strokeWidth=4;exitX=0;exitY=0.5;exitDx=0;exitDy=0;entryX=0.5;entryY=0;entryDx=0;entryDy=0;" edge="1" parent="1" source="mWsBHAnHRhZ5X0qZi9KK-4" target="mWsBHAnHRhZ5X0qZi9KK-7">
          <mxGeometry width="50" height="50" relative="1" as="geometry">
            <mxPoint x="370" y="437" as="sourcePoint" />
            <mxPoint x="430" y="494" as="targetPoint" />
          </mxGeometry>
        </mxCell>
        <mxCell id="mWsBHAnHRhZ5X0qZi9KK-36" value="autoarrow" style="rounded=0;whiteSpace=wrap;html=1;" vertex="1" parent="1">
          <mxGeometry x="912" y="535" width="120" height="60" as="geometry" />
        </mxCell>
        <mxCell id="mWsBHAnHRhZ5X0qZi9KK-37" value="" style="endArrow=classic;html=1;rounded=0;entryX=0.25;entryY=0;entryDx=0;entryDy=0;strokeWidth=4;exitX=0.75;exitY=1;exitDx=0;exitDy=0;" edge="1" parent="1" source="mWsBHAnHRhZ5X0qZi9KK-12" target="mWsBHAnHRhZ5X0qZi9KK-36">
          <mxGeometry width="50" height="50" relative="1" as="geometry">
            <mxPoint x="1025" y="495" as="sourcePoint" />
            <mxPoint x="1025" y="540" as="targetPoint" />
            <Array as="points" />
          </mxGeometry>
        </mxCell>
        <mxCell id="mWsBHAnHRhZ5X0qZi9KK-38" value="Draw_Line" style="rounded=0;whiteSpace=wrap;html=1;" vertex="1" parent="1">
          <mxGeometry x="1193" y="252" width="120" height="60" as="geometry" />
        </mxCell>
        <mxCell id="mWsBHAnHRhZ5X0qZi9KK-39" value="Write_Char" style="rounded=0;whiteSpace=wrap;html=1;" vertex="1" parent="1">
          <mxGeometry x="1365" y="252" width="120" height="60" as="geometry" />
        </mxCell>
        <mxCell id="mWsBHAnHRhZ5X0qZi9KK-40" value="Draw_Arrow" style="rounded=0;whiteSpace=wrap;html=1;" vertex="1" parent="1">
          <mxGeometry x="1193" y="152" width="120" height="60" as="geometry" />
        </mxCell>
        <mxCell id="mWsBHAnHRhZ5X0qZi9KK-41" value="Write_String" style="rounded=0;whiteSpace=wrap;html=1;" vertex="1" parent="1">
          <mxGeometry x="1365" y="152" width="120" height="60" as="geometry" />
        </mxCell>
        <mxCell id="mWsBHAnHRhZ5X0qZi9KK-42" value="Fonts&lt;span style=&quot;background-color: initial;&quot;&gt;_Data&lt;/span&gt;" style="rounded=0;whiteSpace=wrap;html=1;" vertex="1" parent="1">
          <mxGeometry x="1534" y="252" width="120" height="60" as="geometry" />
        </mxCell>
        <mxCell id="mWsBHAnHRhZ5X0qZi9KK-43" value="Write_a_Pixel" style="rounded=0;whiteSpace=wrap;html=1;" vertex="1" parent="1">
          <mxGeometry x="1365" y="366" width="120" height="60" as="geometry" />
        </mxCell>
        <mxCell id="mWsBHAnHRhZ5X0qZi9KK-44" value="ssd1306_buffer" style="rounded=0;whiteSpace=wrap;html=1;" vertex="1" parent="1">
          <mxGeometry x="1365" y="475" width="120" height="60" as="geometry" />
        </mxCell>
        <mxCell id="mWsBHAnHRhZ5X0qZi9KK-45" value="ssd1306" style="rounded=0;whiteSpace=wrap;html=1;" vertex="1" parent="1">
          <mxGeometry x="1365" y="588" width="120" height="60" as="geometry" />
        </mxCell>
        <mxCell id="mWsBHAnHRhZ5X0qZi9KK-46" value="" style="shape=flexArrow;endArrow=classic;html=1;rounded=0;entryX=0.5;entryY=0;entryDx=0;entryDy=0;exitX=0.5;exitY=1;exitDx=0;exitDy=0;" edge="1" parent="1" source="mWsBHAnHRhZ5X0qZi9KK-44" target="mWsBHAnHRhZ5X0qZi9KK-45">
          <mxGeometry width="50" height="50" relative="1" as="geometry">
            <mxPoint x="1300" y="491.5" as="sourcePoint" />
            <mxPoint x="1300" y="536.5" as="targetPoint" />
          </mxGeometry>
        </mxCell>
        <mxCell id="mWsBHAnHRhZ5X0qZi9KK-47" value="I2C3" style="edgeLabel;html=1;align=center;verticalAlign=middle;resizable=0;points=[];" vertex="1" connectable="0" parent="mWsBHAnHRhZ5X0qZi9KK-46">
          <mxGeometry x="-0.4436" y="2" relative="1" as="geometry">
            <mxPoint as="offset" />
          </mxGeometry>
        </mxCell>
        <mxCell id="mWsBHAnHRhZ5X0qZi9KK-48" value="ssd1306_Init" style="rounded=0;whiteSpace=wrap;html=1;" vertex="1" parent="1">
          <mxGeometry x="1530" y="588" width="120" height="60" as="geometry" />
        </mxCell>
        <mxCell id="mWsBHAnHRhZ5X0qZi9KK-49" value="" style="shape=flexArrow;endArrow=classic;html=1;rounded=0;entryX=1;entryY=0.5;entryDx=0;entryDy=0;exitX=0;exitY=0.5;exitDx=0;exitDy=0;" edge="1" parent="1" source="mWsBHAnHRhZ5X0qZi9KK-48" target="mWsBHAnHRhZ5X0qZi9KK-45">
          <mxGeometry width="50" height="50" relative="1" as="geometry">
            <mxPoint x="1435" y="545" as="sourcePoint" />
            <mxPoint x="1435" y="598" as="targetPoint" />
          </mxGeometry>
        </mxCell>
        <mxCell id="mWsBHAnHRhZ5X0qZi9KK-50" value="I2C3" style="edgeLabel;html=1;align=center;verticalAlign=middle;resizable=0;points=[];" vertex="1" connectable="0" parent="mWsBHAnHRhZ5X0qZi9KK-49">
          <mxGeometry x="-0.4436" y="2" relative="1" as="geometry">
            <mxPoint as="offset" />
          </mxGeometry>
        </mxCell>
        <mxCell id="mWsBHAnHRhZ5X0qZi9KK-51" value="" style="endArrow=classic;html=1;rounded=0;entryX=0.5;entryY=0;entryDx=0;entryDy=0;strokeWidth=4;exitX=0.5;exitY=1;exitDx=0;exitDy=0;" edge="1" parent="1" source="mWsBHAnHRhZ5X0qZi9KK-43" target="mWsBHAnHRhZ5X0qZi9KK-44">
          <mxGeometry width="50" height="50" relative="1" as="geometry">
            <mxPoint x="950" y="501" as="sourcePoint" />
            <mxPoint x="952" y="545" as="targetPoint" />
            <Array as="points" />
          </mxGeometry>
        </mxCell>
        <mxCell id="mWsBHAnHRhZ5X0qZi9KK-52" value="" style="endArrow=classic;html=1;rounded=0;entryX=0.5;entryY=0;entryDx=0;entryDy=0;strokeWidth=4;exitX=0.5;exitY=1;exitDx=0;exitDy=0;" edge="1" parent="1" source="mWsBHAnHRhZ5X0qZi9KK-39" target="mWsBHAnHRhZ5X0qZi9KK-43">
          <mxGeometry width="50" height="50" relative="1" as="geometry">
            <mxPoint x="1435" y="436" as="sourcePoint" />
            <mxPoint x="1435" y="485" as="targetPoint" />
            <Array as="points" />
          </mxGeometry>
        </mxCell>
        <mxCell id="mWsBHAnHRhZ5X0qZi9KK-53" value="" style="endArrow=classic;html=1;rounded=0;entryX=1;entryY=0.5;entryDx=0;entryDy=0;strokeWidth=4;exitX=0;exitY=0.5;exitDx=0;exitDy=0;" edge="1" parent="1" source="mWsBHAnHRhZ5X0qZi9KK-42" target="mWsBHAnHRhZ5X0qZi9KK-39">
          <mxGeometry width="50" height="50" relative="1" as="geometry">
            <mxPoint x="1435" y="322" as="sourcePoint" />
            <mxPoint x="1435" y="376" as="targetPoint" />
            <Array as="points" />
          </mxGeometry>
        </mxCell>
        <mxCell id="mWsBHAnHRhZ5X0qZi9KK-54" value="" style="endArrow=classic;html=1;rounded=0;entryX=0.5;entryY=0;entryDx=0;entryDy=0;strokeWidth=4;exitX=0.5;exitY=1;exitDx=0;exitDy=0;" edge="1" parent="1" source="mWsBHAnHRhZ5X0qZi9KK-41" target="mWsBHAnHRhZ5X0qZi9KK-39">
          <mxGeometry width="50" height="50" relative="1" as="geometry">
            <mxPoint x="1544" y="292" as="sourcePoint" />
            <mxPoint x="1495" y="292" as="targetPoint" />
            <Array as="points" />
          </mxGeometry>
        </mxCell>
        <mxCell id="mWsBHAnHRhZ5X0qZi9KK-55" value="" style="endArrow=classic;html=1;rounded=0;entryX=0.5;entryY=0;entryDx=0;entryDy=0;strokeWidth=4;exitX=0.5;exitY=1;exitDx=0;exitDy=0;" edge="1" parent="1" source="mWsBHAnHRhZ5X0qZi9KK-40" target="mWsBHAnHRhZ5X0qZi9KK-38">
          <mxGeometry width="50" height="50" relative="1" as="geometry">
            <mxPoint x="1435" y="222" as="sourcePoint" />
            <mxPoint x="1435" y="262" as="targetPoint" />
            <Array as="points" />
          </mxGeometry>
        </mxCell>
        <mxCell id="mWsBHAnHRhZ5X0qZi9KK-56" value="" style="endArrow=classic;html=1;rounded=0;entryX=0;entryY=0.5;entryDx=0;entryDy=0;strokeWidth=4;exitX=0.5;exitY=1;exitDx=0;exitDy=0;" edge="1" parent="1" source="mWsBHAnHRhZ5X0qZi9KK-38" target="mWsBHAnHRhZ5X0qZi9KK-43">
          <mxGeometry width="50" height="50" relative="1" as="geometry">
            <mxPoint x="1140" y="308" as="sourcePoint" />
            <mxPoint x="1263" y="262" as="targetPoint" />
            <Array as="points" />
          </mxGeometry>
        </mxCell>
        <mxCell id="mWsBHAnHRhZ5X0qZi9KK-57" value="" style="endArrow=classic;html=1;rounded=0;entryX=1;entryY=0.5;entryDx=0;entryDy=0;strokeWidth=4;exitX=0.5;exitY=1;exitDx=0;exitDy=0;" edge="1" parent="1" source="mWsBHAnHRhZ5X0qZi9KK-42" target="mWsBHAnHRhZ5X0qZi9KK-43">
          <mxGeometry width="50" height="50" relative="1" as="geometry">
            <mxPoint x="1263" y="322" as="sourcePoint" />
            <mxPoint x="1375" y="406" as="targetPoint" />
            <Array as="points" />
          </mxGeometry>
        </mxCell>
        <mxCell id="mWsBHAnHRhZ5X0qZi9KK-58" value="" style="edgeStyle=elbowEdgeStyle;elbow=vertical;endArrow=classic;html=1;curved=0;rounded=0;endSize=8;startSize=8;strokeWidth=4;exitX=1;exitY=0.5;exitDx=0;exitDy=0;entryX=0;entryY=0.5;entryDx=0;entryDy=0;" edge="1" parent="1" source="mWsBHAnHRhZ5X0qZi9KK-36">
          <mxGeometry width="50" height="50" relative="1" as="geometry">
            <mxPoint x="1090" y="535" as="sourcePoint" />
            <mxPoint x="1251" y="152" as="targetPoint" />
            <Array as="points">
              <mxPoint x="1199" y="92" />
            </Array>
          </mxGeometry>
        </mxCell>
      </root>
    </mxGraphModel>
  </diagram>
</mxfile>
